<svg xmlns="http://www.w3.org/2000/svg" xml:space="preserve" id="sale" width="72" height="72" x="0" y="0" version="1.1" viewBox="0 0 72 72">
  <path d="M66.318 7.585a2.002 2.002 0 0 0-1.83-1.889L38.635 3.139a1.99 1.99 0 0 0-1.611.576L6.55 34.191c-4.571 4.571-4.571 7.359 0 11.929l19.338 19.34c2.049 2.05 3.847 3.412 5.965 3.412s3.916-1.366 5.961-3.413l30.479-30.478a1.997 1.997 0 0 0 .576-1.611L66.318 7.585zM34.987 62.631c-.961.961-2.332 2.24-3.134 2.24-.803 0-2.175-1.279-3.137-2.24L9.378 43.291c-2.989-2.988-2.989-3.283 0-6.271L39.186 7.212l23.303 2.306 2.308 23.304-29.81 29.809z"></path>
  <path d="m24.043 27.496-9.09 9.089c-2.295 2.295-2.925 3.851-.297 6.479a.997.997 0 0 0 1.414 0 .999.999 0 0 0 0-1.414c-1.567-1.567-1.548-1.805.297-3.651l9.09-9.089a.999.999 0 1 0-1.414-1.414zM26.888 24.649l-.813.814a.999.999 0 1 0 1.416 1.412l.813-.814a.999.999 0 1 0-1.416-1.412zM50.604 12.862c-4.571 0-8.293 3.72-8.293 8.292 0 4.572 3.722 8.292 8.293 8.292 4.573 0 8.291-3.72 8.291-8.292 0-4.572-3.719-8.292-8.291-8.292zm0 12.584a4.298 4.298 0 0 1-4.293-4.292 4.298 4.298 0 0 1 4.293-4.292 4.295 4.295 0 0 1 4.291 4.292 4.296 4.296 0 0 1-4.291 4.292z"></path>
</svg>
